<svg width="53" height="53" viewBox="0 0 53 53" fill="none" xmlns="http://www.w3.org/2000/svg">
<circle cx="26.5" cy="26.5" r="26.5" fill="#FF3030"/>
<path d="M36.5293 20C36.7275 20 36.8129 20.0537 36.876 20.1182C36.9408 20.1844 37 20.2821 37 20.502C36.9999 20.7234 36.9404 20.821 36.876 20.8867L23.1699 34.8818C23.1101 34.9429 23.0721 34.9593 23.0596 34.9639L23.0547 34.9658C22.9993 34.9861 22.9309 35 22.8418 35C22.7524 35 22.6834 34.9862 22.6279 34.9658L22.623 34.9639L22.5859 34.9443C22.5675 34.9321 22.5427 34.9125 22.5127 34.8818L16.1074 28.3408C16.0509 28.2831 15.9946 28.1973 16 27.9844C16.0067 27.7561 16.0716 27.6468 16.1445 27.5723C16.2132 27.5021 16.2952 27.4541 16.4727 27.4541C16.6501 27.4541 16.7321 27.5021 16.8008 27.5723L22.127 33.0107L22.8418 33.7402L23.5557 33.0107L36.1816 20.1182C36.2442 20.0542 36.3296 20.0001 36.5293 20Z" fill="white" stroke="white" stroke-width="2"/>
</svg>
